<?xml version="1.0" encoding="UTF-8" standalone="no"?>
<svg
   xmlns:dc="http://purl.org/dc/elements/1.1/"
   xmlns:cc="http://creativecommons.org/ns#"
   xmlns:rdf="http://www.w3.org/1999/02/22-rdf-syntax-ns#"
   xmlns:svg="http://www.w3.org/2000/svg"
   xmlns="http://www.w3.org/2000/svg"
   xmlns:sodipodi="http://sodipodi.sourceforge.net/DTD/sodipodi-0.dtd"
   xmlns:inkscape="http://www.inkscape.org/namespaces/inkscape"
   inkscape:version="1.0 (4035a4fb49, 2020-05-01)"
   sodipodi:docname="collaboration.svg"
   version="1.1"
   viewBox="0 0 754.30174 493.29981"
   height="493.2998"
   width="754.30176"
   data-name="Layer 1"
   id="b66c9c51-8109-402d-a3f9-100a5bb3d153">
  <metadata
     id="metadata2658">
    <rdf:RDF>
      <cc:Work
         rdf:about="">
        <dc:format>image/svg+xml</dc:format>
        <dc:type
           rdf:resource="http://purl.org/dc/dcmitype/StillImage" />
        <dc:title>work_together</dc:title>
      </cc:Work>
    </rdf:RDF>
  </metadata>
  <defs
     id="defs2656" />
  <sodipodi:namedview
     inkscape:current-layer="b66c9c51-8109-402d-a3f9-100a5bb3d153"
     inkscape:window-maximized="1"
     inkscape:window-y="44"
     inkscape:window-x="0"
     inkscape:cy="268.04538"
     inkscape:cx="-74.961546"
     inkscape:zoom="0.66909992"
     fit-margin-bottom="0"
     fit-margin-right="0"
     fit-margin-left="0"
     fit-margin-top="0"
     showgrid="false"
     id="namedview2654"
     inkscape:window-height="1119"
     inkscape:window-width="1920"
     inkscape:pageshadow="2"
     inkscape:pageopacity="0"
     guidetolerance="10"
     gridtolerance="10"
     objecttolerance="10"
     borderopacity="1"
     bordercolor="#666666"
     pagecolor="#ffffff" />
  <title
     id="title2505">work_together</title>
  <rect
     id="rect2507"
     fill="#e6e6e6"
     height="450.60114"
     width="703.57562"
     y="0.39886001"
     x="46.972443" />
  <rect
     id="rect2511"
     fill="white"
     height="317"
     width="254"
     y="65.968742"
     x="458.18701" />
  <ellipse
     id="ellipse2513"
     fill="#e6e6e6"
     ry="6.5"
     rx="45.5"
     cy="477.2616"
     cx="708.80176" />
  <rect
     y="0"
     id="rect2519"
     fill="#f9a826"
     height="29.890471"
     width="703.57562"
     x="46.672028" />
  <circle
     id="circle2521"
     fill="#e6e6e6"
     r="5.5399699"
     cy="15.28159"
     cx="68.884232" />
  <circle
     id="circle2523"
     fill="#e6e6e6"
     r="5.5399699"
     cy="15.28159"
     cx="89.912567" />
  <circle
     id="circle2525"
     fill="#e6e6e6"
     r="5.5399699"
     cy="15.28159"
     cx="110.94089" />
  <path
     id="path2527"
     fill="#3f3d56"
     d="m 656.18701,150.99868 h -1.53864 V 108.84812 A 24.3956,24.3956 0 0 0 630.2527,84.45249 h -89.30161 a 24.3956,24.3956 0 0 0 -24.39567,24.39563 v 231.24125 a 24.3956,24.3956 0 0 0 24.39567,24.39563 h 89.30161 a 24.3956,24.3956 0 0 0 24.39567,-24.39563 V 181.00216 h 1.53864 z" />
  <path
     id="path2529"
     fill="white"
     d="m 630.23708,90.79939 h -11.65682 a 8.6555,8.6555 0 0 1 -8.01381,11.92446 h -51.15979 a 8.65552,8.65552 0 0 1 -8.01379,-11.92446 h -10.88752 a 18.21836,18.21836 0 0 0 -18.21838,18.21834 v 230.902 a 18.21836,18.21836 0 0 0 18.21838,18.21836 h 89.73173 a 18.21837,18.21837 0 0 0 18.21839,-18.21836 v -230.902 A 18.21837,18.21837 0 0 0 630.23708,90.79939 Z" />
  <rect
     id="rect2537"
     fill="#e6e6e6"
     height="8.0526695"
     width="103.06376"
     y="243.34557"
     x="534.83936" />
  <rect
     id="rect2539"
     fill="#e6e6e6"
     height="8.0526695"
     width="103.06376"
     y="268.34555"
     x="534.83936" />
  <rect
     id="rect2541"
     fill="#e6e6e6"
     height="8.0526695"
     width="103.06376"
     y="293.34555"
     x="534.83936" />
  <rect
     id="rect2543"
     fill="#3f3d56"
     transform="rotate(90)"
     height="17.17729"
     width="17.17729"
     y="-648.67889"
     x="401.21329" />
  <rect
     id="rect2545"
     fill="#f9a826"
     transform="rotate(90)"
     height="17.17729"
     width="17.17729"
     y="-621.00433"
     x="401.21332" />
  <rect
     id="rect2547"
     fill="#3f3d56"
     transform="rotate(90)"
     height="17.17729"
     width="17.17729"
     y="-593.32983"
     x="401.21329" />
  <rect
     id="rect2549"
     fill="#3f3d56"
     transform="rotate(90)"
     height="17.17729"
     width="17.17729"
     y="-565.65527"
     x="401.21332" />
  <rect
     id="rect2551"
     fill="#3f3d56"
     transform="rotate(90)"
     height="17.17729"
     width="17.17729"
     y="-537.98077"
     x="401.21329" />
  <rect
     id="rect2553"
     fill="#f9a826"
     height="57.257641"
     width="57.257641"
     y="138.9903"
     x="556.74237" />
  <path
     id="path2611"
     fill="#ffb8b8"
     d="m 672.20217,291.23355 0.81548,-5.25988 c 0,0 4.75311,-10.80516 0.99606,-11.38765 -3.75705,-0.58249 -6.89084,9.70426 -6.89084,9.70426 l 1.37467,10.98574 z" />
  <polygon
     transform="translate(-136)"
     id="polygon2613"
     fill="#575a89"
     points="809.187,289.847 799.302,289.084 799.785,320.707 828.962,336.004 846.67,321.051 813.089,314.306 " />
  <polygon
     transform="translate(-136)"
     id="polygon2615"
     opacity="0.2"
     points="809.187,289.847 799.302,289.084 799.785,320.707 828.962,336.004 846.67,321.051 813.089,314.306 " />
  <rect
     id="rect2617"
     fill="#f9a826"
     transform="scale(-1)"
     height="8.0526695"
     width="103.06376"
     y="-284.76431"
     x="-722.37695" />
  <path
     id="path2619"
     fill="#ffb8b8"
     d="m 665.64121,289.43033 0.007,-5.32271 c 0,0 3.05587,-11.402 -0.74606,-11.40676 -3.80193,-0.005 -5.33608,10.63873 -5.33608,10.63873 l 3.02818,10.64924 z" />
  <path
     id="path2621"
     fill="#2f2e41"
     d="m 709.35317,304.67478 4.6075,-1.12311 a 11.86169,11.86169 0 0 0 11.6416,-14.21088 v 0 a 15.50416,15.50416 0 0 0 -15.4847,-15.52363 v 0 a 15.50417,15.50417 0 0 0 -15.5237,15.48467 v 0 a 12.32065,12.32065 0 0 0 14.7593,15.37295 z" />
  <polygon
     transform="translate(-136)"
     id="polygon2623"
     fill="#2f2e41"
     points="828.797,462.833 840.203,462.847 838.732,423.305 832.709,375.393 818.254,381.458 822.005,422.524 " />
  <path
     id="path2625"
     fill="#2f2e41"
     d="m 694.32102,460.55368 -7.6096,4.55277 c 0,0 -12.1681,1.50549 -9.89171,5.31029 2.27639,3.8048 28.89279,1.55707 28.8947,0.0363 0.002,-1.52078 -0.748,-9.886 -2.26874,-9.88789 z" />
  <path
     id="path2627"
     fill="#2f2e41"
     d="m 715.92227,377.91039 c 0,0 -0.2139,5.87095 -5.5481,14.98891 l 0.725,28.13527 27.33,35.01218 -9.8955,8.35184 -33.40927,-38.06137 -8.307,-45.63372 10.65879,-10.63205 z" />
  <path
     id="path2629"
     fill="#2f2e41"
     d="m 736.14807,456.04389 c 0,0 9.1227,1.53224 7.5971,5.33226 -1.5255,3.80002 -5.3494,21.28415 -15.2316,18.99057 0,0 -4.5623,-0.006 -3.0377,-3.04536 a 55.0044,55.0044 0 0 1 3.0482,-5.31889 l 0.012,-9.885 z" />
  <circle
     id="circle2631"
     fill="#ffb8b8"
     r="11.40581"
     cy="294.04135"
     cx="704.41522" />
  <polygon
     transform="translate(-136)"
     id="polygon2633"
     fill="#ffb8b8"
     points="833.546,314.563 835.083,301.639 845.728,301.652 845.712,314.578 " />
  <path
     id="path2635"
     fill="#575a89"
     d="m 694.51013,309.99707 3.68652,-0.9056 11.52122,0.9247 c 0,0 6.0754,6.09074 5.3132,7.61055 -0.7623,1.51981 -4.611,38.774 -4.611,38.774 l 6.81,26.62213 -24.33427,1.49021 -12.16428,-1.53605 2.34133,-47.90151 c 0,0 -5.30647,-12.93326 1.54178,-16.7266 a 29.95429,29.95429 0 0 0 9.8955,-8.35183 z" />
  <polygon
     transform="translate(-136)"
     id="polygon2637"
     fill="#575a89"
     points="802.404,287.911 792.518,288.658 797.801,319.841 828.964,330.526 844.193,313.056 809.978,311.492 " />
  <circle
     id="circle2639"
     fill="#2f2e41"
     r="7.35883"
     cy="278.27936"
     cx="726.43243" />
  <path
     id="path2641"
     fill="#2f2e41"
     d="m 719.64257,274.32346 a 7.35536,7.35536 0 0 1 8.807,-7.20494 7.3554,7.3554 0 1 0 -4.5877,13.86237 7.35277,7.35277 0 0 1 -4.2193,-6.65743 z" />
  <path
     id="path2643"
     fill="#2f2e41"
     d="m 713.32947,278.49689 -9.92077,-1.82669 -7.62952,4.78184 a 11.57336,11.57336 0 0 0 -5.33128,11.29456 l 7.64125,-1.93681 1.71106,-4.29045 2.03787,3.34024 8.26719,14.45412 8.37,-4.55181 5.3332,-8.35757 z" />
  <g
     transform="translate(-52,4)"
     id="g2679">
    <rect
       x="245.18701"
       y="60.907219"
       width="254"
       height="261"
       fill="white"
       id="rect2509" />
    <ellipse
       cx="389.8996"
       cy="477.40723"
       rx="45.5"
       ry="6.5"
       fill="#e6e6e6"
       id="ellipse2515" />
    <rect
       x="284.09024"
       y="225.7756"
       width="176.5444"
       height="8.0526695"
       fill="#e6e6e6"
       id="rect2531" />
    <rect
       x="284.09024"
       y="251.7756"
       width="176.5444"
       height="8.0526695"
       fill="#f9a826"
       id="rect2533" />
    <rect
       x="284.09024"
       y="277.7756"
       width="176.5444"
       height="8.0526695"
       fill="#e6e6e6"
       id="rect2535" />
    <path
       d="m 504.45442,480.943 -0.74114,1.48227 -2.2234,-11.117 c 0,0 -2.96454,-11.85815 2.96454,-11.85815 5.92908,0 4.4468,11.85815 4.4468,11.85815 v 8.15248 z"
       transform="translate(-154.84913,-205.35011)"
       fill="#a0616a"
       id="path2555" />
    <path
       d="m 601.69555,479.42524 0.74113,1.48227 2.22341,-11.117 c 0,0 2.96454,-11.85815 -2.96454,-11.85815 -5.92908,0 -4.44681,11.85815 -4.44681,11.85815 v 8.15249 z"
       transform="translate(-154.84913,-205.35011)"
       fill="#a0616a"
       id="path2557" />
    <polygon
       points="417.049,361.163 382.215,358.94 373.322,413.784 377.768,467.145 388.144,462.699 386.662,422.677 397.038,390.808 399.261,428.606 394.815,467.886 408.155,469.369 417.79,388.585 "
       fill="#2f2e41"
       id="polygon2559" />
    <path
       d="m 537.06434,665.82526 -5.18794,8.15248 V 692.194 a 2.209,2.209 0 0 0 1.85635,2.18045 c 2.5428,0.41721 6.97037,0.71364 8.51954,-1.86831 2.2234,-3.70567 0.74113,-11.85816 0.74113,-11.85816 0,0 2.96454,-5.92907 1.48227,-10.37588 -1.48227,-4.44681 -2.96454,-5.18794 -2.96454,-5.18794 z"
       transform="translate(-154.84913,-205.35011)"
       fill="#2f2e41"
       id="path2561" />
    <path
       d="m 559.29839,673.23661 1.48227,2.2234 c 0,0 2.2234,2.22341 0.74113,3.70568 a 28.96565,28.96565 0 0 0 -2.96454,3.70567 c 0,0 -8.15248,2.2234 -8.15248,-0.74114 v -9.63475 z"
       transform="translate(-154.84913,-205.35011)"
       fill="#2f2e41"
       id="path2563" />
    <circle
       cx="401.77826"
       cy="288.79507"
       r="9.8242702"
       fill="#a0616a"
       id="circle2565" />
    <polygon
       points="407.784,306.69 407.043,292.608 395.185,291.867 394.444,305.949 "
       fill="#a0616a"
       id="polygon2567" />
    <path
       d="m 564.48633,512.41037 -2.10384,-5.13957 c 0,0 -9.75432,-3.75405 -12.71885,-0.0484 l -1.48227,4.44681 -11.85816,-2.96454 -6.67021,14.8227 5.92908,42.24468 c 0,0 15.56382,20.01064 36.3156,0.74113 L 577.82676,526.49193 573.38,510.9281 Z"
       transform="translate(-154.84913,-205.35011)"
       fill="#575a89"
       id="path2569" />
    <polygon
       points="442.4,269.907 449.4,272.907 441.506,304.837 420.013,324.847 417.049,308.543 418.531,305.578 433.354,296.684 "
       fill="#575a89"
       id="polygon2571" />
    <polygon
       points="354.793,271.486 345.9,274.45 355.534,301.872 379.251,321.142 382.956,304.837 381.474,303.355 365.91,293.72 "
       fill="#575a89"
       id="polygon2573" />
    <path
       d="m 563.91892,479.10047 1.60629,-0.80315 -2.40943,-0.80314 V 476.691 c 0,0 -12.04715,-4.81886 -13.65343,3.21257 a 16.14329,16.14329 0 0 0 0,19.27544 v 2.40942 l 12.85029,1.60629 1.60628,-4.81886 c 0,0 8.03144,-14.45653 0,-19.27539 z"
       transform="translate(-154.84913,-205.35011)"
       fill="#2f2e41"
       id="path2575" />
    <rect
       x="284.18701"
       y="90.907219"
       width="176"
       height="101"
       fill="#e6e6e6"
       id="rect2609" />
    <rect
       x="526.03638"
       y="245.29674"
       width="1.99958"
       height="202.92117"
       transform="rotate(-60.15005,272.30977,377.78094)"
       fill="white"
       id="rect2645" />
    <rect
       x="425.57556"
       y="345.75754"
       width="202.92117"
       height="1.99958"
       transform="rotate(-29.84553,64.346522,534.60063)"
       fill="white"
       id="rect2647" />
  </g>
  <rect
     id="rect2649"
     fill="white"
     transform="rotate(-45)"
     height="80.610168"
     width="1.99979"
     y="492.21295"
     x="294.76859" />
  <rect
     id="rect2651"
     fill="white"
     transform="rotate(-45)"
     height="1.99979"
     width="80.610168"
     y="531.51813"
     x="255.46342" />
  <g
     id="g2698">
    <ellipse
       cx="104.42498"
       cy="470.90723"
       rx="104.42498"
       ry="5"
       fill="#e6e6e6"
       id="ellipse2517" />
    <path
       d="m 269.93891,565.15978 -2.85542,1.42771 c 0,0 -11.42168,5.23493 -8.09036,8.09035 3.33132,2.85542 12.37349,-2.85542 12.37349,-2.85542 l 1.90361,-2.37952 z"
       transform="translate(-154.84913,-205.35011)"
       fill="#ffb8b8"
       id="path2577" />
    <polygon
       points="189.807,418.346 176.481,459.749 169.343,456.418 176.005,399.786 156.969,383.605 158.397,359.81 198.633,359.099 "
       fill="#2f2e41"
       id="polygon2579" />
    <path
       d="m 323.24006,663.19583 c 0,0 8.09036,-4.28313 8.56626,1.90361 l -0.95181,6.18674 c 0,0 2.85542,10.94578 -6.66264,8.56626 -9.51806,-2.37952 -2.85542,-9.51806 -2.85542,-9.51806 z"
       transform="translate(-154.84913,-205.35011)"
       fill="#2f2e41"
       id="path2581" />
    <path
       d="m 318.00513,583.72 -6.18674,5.23493 c 0,0 0,32.36142 4.28312,37.12045 4.28312,4.75903 31.40961,29.0301 32.36142,29.9819 0.95181,0.9518 5.23494,-9.51806 5.23494,-9.51806 l -25.69878,-29.9819 1.90362,-18.56023 z"
       transform="translate(-154.84913,-205.35011)"
       fill="#2f2e41"
       id="path2583" />
    <path
       d="m 350.84245,645.11151 c 0,0 7.61445,-1.42771 7.61445,3.80722 a 115.23116,115.23116 0 0 0 0.9518,12.37349 c 0,0 1.90362,16.65661 -4.28313,14.27709 -6.18675,-2.37952 -8.56625,-19.03612 -8.56625,-19.03612 a 7.08933,7.08933 0 0 1 2.85542,-3.33133 c 1.90361,-0.9518 1.42771,-8.09035 1.42771,-8.09035 z"
       transform="translate(-154.84913,-205.35011)"
       fill="#2f2e41"
       id="path2585" />
    <polygon
       points="172.198,288.424 173.626,306.033 169.819,312.695 159.349,302.701 158.397,289.376 "
       fill="#ffb8b8"
       id="polygon2587" />
    <circle
       cx="163.6319"
       cy="282.71335"
       r="11.42168"
       fill="#ffb8b8"
       id="circle2589" />
    <polygon
       points="180.289,361.237 179.337,371.231 156.017,366.472 154.114,302.701 158.87,296.002 168.391,305.557 173.15,291.756 181.716,301.274 197.421,361.713 185.523,368.852 "
       fill="#d0cde1"
       id="polygon2591" />
    <polygon
       points="141.264,308.412 148.879,335.539 151.258,364.093 161.728,373.135 158.873,296.039 152.686,300.798 "
       fill="#2f2e41"
       id="polygon2593" />
    <polygon
       points="141.264,308.412 131.746,336.49 112.71,360.286 119.849,367.9 141.74,346.484 149.831,328.876 144.596,308.888 "
       fill="#2f2e41"
       id="polygon2595" />
    <path
       d="m 351.4174,565.59536 -0.64933,3.12573 c 0,0 -2.97081,12.20793 1.33475,11.36336 4.30556,-0.84457 5.4281,-11.48008 5.4281,-11.48008 l -0.68754,-2.96869 z"
       transform="translate(-154.84913,-205.35011)"
       fill="#ffb8b8"
       id="path2597" />
    <polygon
       points="198.849,360.286 193.138,366.472 172.022,295.028 172.406,290.983 195.993,300.322 193.138,328.876 "
       fill="#2f2e41"
       id="polygon2599" />
    <path
       d="m 319.079,468.8806 3.35262,-1.6763 v 1.6763 l 2.23507,-1.11753 v 2.79384 c 0,0 8.38153,6.14645 6.70522,13.41044 -1.67631,7.26399 -1.67631,7.82276 -1.67631,7.82276 0,0 -2.11922,-13.81412 -10.50074,-11.57905 -8.38152,2.23507 -9.05615,2.63876 -11.29122,8.78521 l -0.60636,2.63647 c 0,0 -9.45145,-21.6346 11.78172,-22.75214 z"
       transform="translate(-154.84913,-205.35011)"
       fill="#2f2e41"
       id="path2601" />
    <polygon
       points="202.656,362.665 195.042,361.237 188.855,317.454 192.662,300.322 196.469,300.322 202.656,333.635 "
       fill="#2f2e41"
       id="polygon2603" />
    <rect
       x="3.5350101"
       y="370.77158"
       width="140.32095"
       height="97.511177"
       fill="#f9a826"
       id="rect2605" />
    <path
       d="m 228.54462,595.14827 a 29.729,29.729 0 1 0 29.729,29.729 29.81642,29.81642 0 0 0 -29.729,-29.729 z m 0,8.9187 a 8.91871,8.91871 0 1 1 -8.91871,8.91871 8.94863,8.94863 0 0 1 8.91871,-8.91871 z m 0,42.93556 a 21.65737,21.65737 0 0 1 -17.83742,-9.519 c 0.14293,-5.94581 11.89161,-9.21886 17.83742,-9.21886 5.94581,0 17.69448,3.27305 17.8374,9.21886 a 21.69344,21.69344 0 0 1 -17.83741,9.519 z"
       transform="translate(-154.84913,-205.35011)"
       fill="white"
       id="path2607" />
  </g>
</svg>
